<?xml version="1.0" encoding="UTF-8" standalone="no"?>
<!-- Created with Inkscape (http://www.inkscape.org/) -->

<svg
   width="210mm"
   height="297mm"
   viewBox="0 0 210 297"
   version="1.1"
   id="svg1"
   inkscape:version="1.3.2 (091e20ef0f, 2023-11-25, custom)"
   sodipodi:docname="logo.svg"
   inkscape:export-filename="logo.png"
   inkscape:export-xdpi="96"
   inkscape:export-ydpi="96"
   xmlns:inkscape="http://www.inkscape.org/namespaces/inkscape"
   xmlns:sodipodi="http://sodipodi.sourceforge.net/DTD/sodipodi-0.dtd"
   xmlns="http://www.w3.org/2000/svg"
   xmlns:svg="http://www.w3.org/2000/svg">
  <sodipodi:namedview
     id="namedview1"
     pagecolor="#ffffff"
     bordercolor="#000000"
     borderopacity="0.25"
     inkscape:showpageshadow="2"
     inkscape:pageopacity="0.0"
     inkscape:pagecheckerboard="0"
     inkscape:deskcolor="#d1d1d1"
     inkscape:document-units="mm"
     inkscape:zoom="1.1496651"
     inkscape:cx="284.86556"
     inkscape:cy="524.50056"
     inkscape:window-width="2256"
     inkscape:window-height="1408"
     inkscape:window-x="0"
     inkscape:window-y="56"
     inkscape:window-maximized="1"
     inkscape:current-layer="layer1" />
  <defs
     id="defs1">
    <marker
       style="overflow:visible"
       id="Dot"
       refX="0"
       refY="0"
       orient="auto"
       inkscape:stockid="Dot"
       markerWidth="0.85"
       markerHeight="0.85"
       viewBox="0 0 1 1"
       inkscape:isstock="true"
       inkscape:collect="always"
       preserveAspectRatio="xMidYMid"
       markerUnits="userSpaceOnUse">
      <path
         transform="scale(0.5)"
         style="fill:context-stroke;fill-rule:evenodd;stroke:none"
         d="M 5,0 C 5,2.76 2.76,5 0,5 -2.76,5 -5,2.76 -5,0 c 0,-2.76 2.3,-5 5,-5 2.76,0 5,2.24 5,5 z"
         sodipodi:nodetypes="sssss"
         id="path17" />
    </marker>
    <marker
       style="overflow:visible"
       id="Dot-2"
       refX="0"
       refY="0"
       orient="auto"
       inkscape:stockid="Dot"
       markerWidth="0.85000002"
       markerHeight="0.85000002"
       viewBox="0 0 1 1"
       inkscape:isstock="true"
       inkscape:collect="always"
       preserveAspectRatio="xMidYMid"
       markerUnits="userSpaceOnUse">
      <path
         transform="scale(0.5)"
         style="fill:context-stroke;fill-rule:evenodd;stroke:none"
         d="M 5,0 C 5,2.76 2.76,5 0,5 -2.76,5 -5,2.76 -5,0 c 0,-2.76 2.3,-5 5,-5 2.76,0 5,2.24 5,5 z"
         sodipodi:nodetypes="sssss"
         id="path17-7" />
    </marker>
    <marker
       style="overflow:visible"
       id="Dot-6"
       refX="0"
       refY="0"
       orient="auto"
       inkscape:stockid="Dot"
       markerWidth="0.85000002"
       markerHeight="0.85000002"
       viewBox="0 0 1 1"
       inkscape:isstock="true"
       inkscape:collect="always"
       preserveAspectRatio="xMidYMid"
       markerUnits="userSpaceOnUse">
      <path
         transform="scale(0.5)"
         style="fill:context-stroke;fill-rule:evenodd;stroke:none"
         d="M 5,0 C 5,2.76 2.76,5 0,5 -2.76,5 -5,2.76 -5,0 c 0,-2.76 2.3,-5 5,-5 2.76,0 5,2.24 5,5 z"
         sodipodi:nodetypes="sssss"
         id="path17-2" />
    </marker>
    <marker
       style="overflow:visible"
       id="Dot-20"
       refX="0"
       refY="0"
       orient="auto"
       inkscape:stockid="Dot"
       markerWidth="0.85000002"
       markerHeight="0.85000002"
       viewBox="0 0 1 1"
       inkscape:isstock="true"
       inkscape:collect="always"
       preserveAspectRatio="xMidYMid"
       markerUnits="userSpaceOnUse">
      <path
         transform="scale(0.5)"
         style="fill:context-stroke;fill-rule:evenodd;stroke:none"
         d="M 5,0 C 5,2.76 2.76,5 0,5 -2.76,5 -5,2.76 -5,0 c 0,-2.76 2.3,-5 5,-5 2.76,0 5,2.24 5,5 z"
         sodipodi:nodetypes="sssss"
         id="path17-23" />
    </marker>
    <marker
       style="overflow:visible"
       id="Dot-6-8"
       refX="0"
       refY="0"
       orient="auto"
       inkscape:stockid="Dot"
       markerWidth="0.85000002"
       markerHeight="0.85000002"
       viewBox="0 0 1 1"
       inkscape:isstock="true"
       inkscape:collect="always"
       preserveAspectRatio="xMidYMid"
       markerUnits="userSpaceOnUse">
      <path
         transform="scale(0.5)"
         style="fill:context-stroke;fill-rule:evenodd;stroke:none"
         d="M 5,0 C 5,2.76 2.76,5 0,5 -2.76,5 -5,2.76 -5,0 c 0,-2.76 2.3,-5 5,-5 2.76,0 5,2.24 5,5 z"
         sodipodi:nodetypes="sssss"
         id="path17-2-9" />
    </marker>
    <marker
       style="overflow:visible"
       id="Dot-6-8-4"
       refX="0"
       refY="0"
       orient="auto"
       inkscape:stockid="Dot"
       markerWidth="0.85000002"
       markerHeight="0.85000002"
       viewBox="0 0 1 1"
       inkscape:isstock="true"
       inkscape:collect="always"
       preserveAspectRatio="xMidYMid"
       markerUnits="userSpaceOnUse">
      <path
         transform="scale(0.5)"
         style="fill:context-stroke;fill-rule:evenodd;stroke:none"
         d="M 5,0 C 5,2.76 2.76,5 0,5 -2.76,5 -5,2.76 -5,0 c 0,-2.76 2.3,-5 5,-5 2.76,0 5,2.24 5,5 z"
         sodipodi:nodetypes="sssss"
         id="path17-2-9-5" />
    </marker>
    <marker
       style="overflow:visible"
       id="Dot-6-8-6"
       refX="0"
       refY="0"
       orient="auto"
       inkscape:stockid="Dot"
       markerWidth="0.85000002"
       markerHeight="0.85000002"
       viewBox="0 0 1 1"
       inkscape:isstock="true"
       inkscape:collect="always"
       preserveAspectRatio="xMidYMid"
       markerUnits="userSpaceOnUse">
      <path
         transform="scale(0.5)"
         style="fill:context-stroke;fill-rule:evenodd;stroke:none"
         d="M 5,0 C 5,2.76 2.76,5 0,5 -2.76,5 -5,2.76 -5,0 c 0,-2.76 2.3,-5 5,-5 2.76,0 5,2.24 5,5 z"
         sodipodi:nodetypes="sssss"
         id="path17-2-9-3" />
    </marker>
    <marker
       style="overflow:visible"
       id="Dot-6-8-6-4"
       refX="0"
       refY="0"
       orient="auto"
       inkscape:stockid="Dot"
       markerWidth="0.85000002"
       markerHeight="0.85000002"
       viewBox="0 0 1 1"
       inkscape:isstock="true"
       inkscape:collect="always"
       preserveAspectRatio="xMidYMid"
       markerUnits="userSpaceOnUse">
      <path
         transform="scale(0.5)"
         style="fill:context-stroke;fill-rule:evenodd;stroke:none"
         d="M 5,0 C 5,2.76 2.76,5 0,5 -2.76,5 -5,2.76 -5,0 c 0,-2.76 2.3,-5 5,-5 2.76,0 5,2.24 5,5 z"
         sodipodi:nodetypes="sssss"
         id="path17-2-9-3-7" />
    </marker>
  </defs>
  <g
     inkscape:label="Layer 1"
     inkscape:groupmode="layer"
     id="layer1">
    <path
       style="fill:none;fill-opacity:1;stroke:#000000;stroke-width:8.365;stroke-dasharray:none;stroke-opacity:1"
       id="path2"
       sodipodi:type="arc"
       sodipodi:cx="109.54746"
       sodipodi:cy="88.788353"
       sodipodi:rx="16.952578"
       sodipodi:ry="16.952578"
       sodipodi:start="0"
       sodipodi:end="6.2828575"
       sodipodi:open="true"
       sodipodi:arc-type="arc"
       d="M 126.50004,88.788353 A 16.952578,16.952578 0 0 1 109.54885,105.74093 16.952578,16.952578 0 0 1 92.594885,88.791132 16.952578,16.952578 0 0 1 109.54329,71.835776 a 16.952578,16.952578 0 0 1 16.95675,16.94702" />
    <path
       style="fill:#000000;fill-opacity:1;stroke:#000000;stroke-width:7.8868;stroke-dasharray:none;stroke-opacity:1"
       d="m 93.251966,103.22685 c 12.144874,19.73648 35.565264,2.12829 35.565264,2.12829"
       id="path7"
       sodipodi:nodetypes="cc" />
    <path
       style="fill:#000000;fill-opacity:1;stroke:#000000;stroke-width:4.665;stroke-linejoin:round;stroke-dasharray:none;stroke-opacity:1;marker-start:url(#Dot);marker-mid:url(#Dot);marker-end:url(#Dot)"
       d="m 46.648247,122.39282 48.981907,13.12466"
       id="path8" />
    <path
       style="fill:#000000;fill-opacity:1;stroke:#000000;stroke-width:4.665;stroke-linejoin:round;stroke-dasharray:none;stroke-opacity:1;marker-start:url(#Dot-2);marker-mid:url(#Dot-2);marker-end:url(#Dot-2)"
       d="m 46.648247,137.74906 48.98191,13.12466"
       id="path8-3" />
    <path
       style="fill:#000000;fill-opacity:1;stroke:#000000;stroke-width:4.665;stroke-linejoin:round;stroke-dasharray:none;stroke-opacity:1;marker-start:url(#Dot-6);marker-mid:url(#Dot-6);marker-end:url(#Dot-6)"
       d="m 46.648247,153.95435 48.981905,13.12466"
       id="path8-8" />
    <path
       style="fill:#000000;fill-opacity:1;stroke:#000000;stroke-width:4.665;stroke-linejoin:round;stroke-dasharray:none;stroke-opacity:1;marker-start:url(#Dot-6-8);marker-mid:url(#Dot-6-8);marker-end:url(#Dot-6-8)"
       d="M 169.33975,154.01464 120.35784,167.1393"
       id="path8-8-6" />
    <path
       style="fill:#000000;fill-opacity:1;stroke:#000000;stroke-width:4.665;stroke-linejoin:round;stroke-dasharray:none;stroke-opacity:1;marker-start:url(#Dot-6-8-6);marker-mid:url(#Dot-6-8-6);marker-end:url(#Dot-6-8-6)"
       d="m 142.66228,144.94382 -22.57875,6.07343"
       id="path8-8-6-61"
       sodipodi:nodetypes="cc" />
    <path
       style="fill:#000000;fill-opacity:1;stroke:#000000;stroke-width:4.665;stroke-linejoin:round;stroke-dasharray:none;stroke-opacity:1;marker-start:url(#Dot-6-8-6-4);marker-mid:url(#Dot-6-8-6-4);marker-end:url(#Dot-6-8-6-4)"
       d="m 142.66228,129.90822 -22.57875,6.07343"
       id="path8-8-6-61-6"
       sodipodi:nodetypes="cc" />
    <path
       style="fill:#000000;fill-opacity:1;stroke:#000000;stroke-width:4.665;stroke-linejoin:round;stroke-dasharray:none;stroke-opacity:1;marker-start:url(#Dot-6-8-4);marker-mid:url(#Dot-6-8-4);marker-end:url(#Dot-6-8-4)"
       d="m 169.33975,169.27843 -48.98191,13.12466"
       id="path8-8-6-6" />
    <path
       style="fill:#000000;fill-opacity:1;stroke:#000000;stroke-width:4.665;stroke-linejoin:round;stroke-dasharray:none;stroke-opacity:1;marker-start:url(#Dot-20);marker-mid:url(#Dot-20);marker-end:url(#Dot-20)"
       d="m 46.648247,169.25396 48.9819,13.12466"
       id="path8-9" />
    <path
       style="fill:#000000;fill-opacity:1;stroke:#000000;stroke-width:0;stroke-linejoin:round;stroke-dasharray:none;stroke-opacity:1"
       d="m 171.46358,112.17362 v 31.30902 l -22.62789,6.06313 1e-4,-30.67503 z"
       id="path9"
       sodipodi:nodetypes="ccccc" />
  </g>
  <g
     inkscape:groupmode="layer"
     id="layer2"
     inkscape:label="Book">
    <path
       style="fill:none;fill-opacity:1;stroke:#000000;stroke-width:12.627;stroke-linejoin:round;stroke-dasharray:none;stroke-opacity:1"
       d="m 110.44098,110.18827 65.12355,-18.150286 12.80339,-3.568375 v 15.894681 73.20487 10.91877 l -9.84818,2.74474 -66.9761,18.66661"
       id="path3"
       inkscape:transform-center-x="-0.616113"
       inkscape:transform-center-y="4.8371716"
       inkscape:label="path3"
       sodipodi:nodetypes="cccccccc" />
    <path
       style="fill:#000000;fill-opacity:1;stroke:#000000;stroke-width:0.165;stroke-dasharray:none;stroke-opacity:1"
       d="m 114.80269,203.07172 c -0.99778,0.29045 -2.57617,0.0598 -6.04428,1.15273 -0.4113,0.12961 -0.84839,0.15675 -1.26859,0.25372 -0.1303,0.0301 -0.25099,0.0939 -0.38059,0.12685 -0.0587,0.0149 -0.13705,-0.041 -0.18162,0 -0.0282,0.026 -0.12686,2.54186 -0.12686,2.96028 0,0.68752 -0.11549,1.51689 0,2.2077 0.0643,0.38453 0.19858,0.75579 0.25372,1.14173 0.0659,0.46111 -0.21319,1.82155 0,2.20402 0.18179,0.32616 0.46488,0.53027 0.66775,0.89054 0.0613,0.10892 0.17078,0.74876 0.25372,0.82434 0.0485,0.0442 0.29598,0.0782 0.33053,0.11185 0.0295,0.0288 -0.0294,0.0947 0,0.1236 0.0299,0.0294 0.0953,-0.0287 0.12589,0 0.32492,0.3052 0.42575,0.87353 0.62887,1.23263 0.0539,0.0953 -2.7839,0.58886 1.82773,0.35458 0.42262,-0.0215 5.55779,-1.55609 5.79023,-1.72816 0.0821,-0.0608 -3.5197,0.58698 -3.4331,0.54251 0.11674,-0.06 0.16139,-0.16108 0.26614,-0.26861"
       id="path4"
       inkscape:label="path4"
       sodipodi:nodetypes="csssssssssscscssssc" />
  </g>
  <g
     inkscape:groupmode="layer"
     id="g6"
     inkscape:label="Book">
    <path
       style="fill:none;fill-opacity:1;stroke:#000000;stroke-width:12.627;stroke-linejoin:round;stroke-dasharray:none;stroke-opacity:1;marker-mid:url(#Dot)"
       d="M 106.93792,110.16632 29.01098,88.447658 v 85.181252 14.83707 l 14.134796,4.36883 62.689484,17.04252"
       id="path5"
       inkscape:transform-center-x="0.61611645"
       inkscape:transform-center-y="4.8371716"
       inkscape:label="path3"
       sodipodi:nodetypes="cccccc" />
    <path
       style="fill:#000000;fill-opacity:1;stroke:#000000;stroke-width:0;stroke-dasharray:none;stroke-opacity:1"
       d="m 105.59728,203.35472 c 0.97074,0.28853 2.14088,0.43851 3.11564,0.7163 9.32132,2.65643 0.60414,0.36664 1.01296,0.46298 0.12677,0.0299 0.24418,0.0933 0.37027,0.12602 0.0571,0.0148 0.13333,-0.0408 0.1767,0 0.0274,0.0258 0.12342,2.52515 0.12342,2.94083 0,0.683 0.11236,1.50692 0,2.19319 -0.0625,0.38201 -0.19319,0.75083 -0.24684,1.13424 -0.0641,0.45808 0.20741,1.80958 0,2.18953 -0.17687,0.32402 -0.45228,0.52679 -0.64965,0.88469 -0.0597,0.10821 -0.16617,0.74385 -0.24685,0.81893 -0.0472,0.0439 -0.28797,0.0777 -0.32158,0.11112 -0.0287,0.0286 0.74093,0.21197 0.71233,0.24066 -0.0291,0.0292 -0.80503,-0.14637 -0.83481,-0.11787 -0.31611,0.30319 2.71367,1.24699 1.13972,1.63514 -0.0525,0.0946 -1.38172,0.13269 -2.25835,-0.003 -0.40687,-0.063 -3.5687,-0.71193 -3.60761,-0.74561 -0.0798,-0.0604 0.12717,-0.44346 0.043,-0.48763 -0.11358,-0.0597 -0.15701,-0.16003 -0.25893,-0.26684"
       id="path6"
       inkscape:label="path4"
       inkscape:transform-center-x="1.2709842"
       inkscape:transform-center-y="4.7077289"
       sodipodi:nodetypes="cssssssssssssccsccc" />
  </g>
</svg>
